<svg width="241" height="35" viewBox="0 0 241 35" fill="none" xmlns="http://www.w3.org/2000/svg">
<path d="M0.8 27V1.8L6.632 0.539999V9.252C7.328 8.724 8.108 8.316 8.972 8.028C9.86 7.74 10.784 7.596 11.744 7.596C13.976 7.596 15.8 8.316 17.216 9.756C18.632 11.196 19.34 13.032 19.34 15.264V27H13.508V16.056C13.508 15.024 13.184 14.196 12.536 13.572C11.912 12.924 11.084 12.6 10.052 12.6C9.308 12.6 8.648 12.732 8.072 12.996C7.496 13.26 7.016 13.632 6.632 14.112V27H0.8ZM90.4133 34.596V7.956H96.1733V9.36C96.9173 8.832 97.7213 8.424 98.5853 8.136C99.4493 7.848 100.349 7.704 101.285 7.704C102.629 7.704 103.889 7.956 105.065 8.46C106.265 8.964 107.297 9.66 108.161 10.548C109.049 11.436 109.745 12.48 110.249 13.68C110.753 14.856 111.005 16.128 111.005 17.496C111.005 18.864 110.741 20.148 110.213 21.348C109.709 22.524 109.013 23.556 108.125 24.444C107.237 25.308 106.181 25.992 104.957 26.496C103.757 27 102.473 27.252 101.105 27.252C100.217 27.252 99.3653 27.144 98.5493 26.928C97.7333 26.712 96.9653 26.4 96.2453 25.992V34.596H90.4133ZM100.277 12.672C99.4613 12.672 98.7173 12.804 98.0453 13.068C97.3733 13.308 96.7733 13.68 96.2453 14.184V20.844C96.7493 21.3 97.3493 21.66 98.0453 21.924C98.7413 22.188 99.4853 22.32 100.277 22.32C101.693 22.32 102.881 21.864 103.841 20.952C104.801 20.016 105.281 18.864 105.281 17.496C105.281 16.128 104.789 14.988 103.805 14.076C102.845 13.14 101.669 12.672 100.277 12.672Z" fill="#994636"/>
<path d="M21.9438 17.496C21.9438 16.128 22.2078 14.844 22.7358 13.644C23.2878 12.42 24.0198 11.364 24.9318 10.476C25.8678 9.588 26.9598 8.892 28.2078 8.388C29.4798 7.86 30.8358 7.596 32.2758 7.596C33.7158 7.596 35.0598 7.86 36.3078 8.388C37.5798 8.892 38.6718 9.588 39.5838 10.476C40.5198 11.364 41.2518 12.42 41.7798 13.644C42.3318 14.844 42.6078 16.128 42.6078 17.496C42.6078 18.864 42.3318 20.16 41.7798 21.384C41.2518 22.584 40.5198 23.628 39.5838 24.516C38.6718 25.404 37.5798 26.1 36.3078 26.604C35.0598 27.108 33.7158 27.36 32.2758 27.36C30.8358 27.36 29.4798 27.108 28.2078 26.604C26.9598 26.1 25.8678 25.404 24.9318 24.516C24.0198 23.628 23.2878 22.584 22.7358 21.384C22.2078 20.16 21.9438 18.864 21.9438 17.496ZM32.2758 22.32C33.5718 22.32 34.6638 21.852 35.5518 20.916C36.4638 19.98 36.9198 18.84 36.9198 17.496C36.9198 16.128 36.4638 14.976 35.5518 14.04C34.6638 13.104 33.5718 12.636 32.2758 12.636C30.9798 12.636 29.8758 13.104 28.9638 14.04C28.0758 14.976 27.6318 16.128 27.6318 17.496C27.6318 18.84 28.0758 19.98 28.9638 20.916C29.8758 21.852 30.9798 22.32 32.2758 22.32Z" fill="#BF5D4A"/>
<path d="M44.479 17.496C44.479 16.128 44.743 14.844 45.271 13.644C45.823 12.42 46.555 11.364 47.467 10.476C48.403 9.588 49.495 8.892 50.743 8.388C52.015 7.86 53.371 7.596 54.811 7.596C56.251 7.596 57.595 7.86 58.843 8.388C60.115 8.892 61.207 9.588 62.119 10.476C63.055 11.364 63.787 12.42 64.315 13.644C64.867 14.844 65.143 16.128 65.143 17.496C65.143 18.864 64.867 20.16 64.315 21.384C63.787 22.584 63.055 23.628 62.119 24.516C61.207 25.404 60.115 26.1 58.843 26.604C57.595 27.108 56.251 27.36 54.811 27.36C53.371 27.36 52.015 27.108 50.743 26.604C49.495 26.1 48.403 25.404 47.467 24.516C46.555 23.628 45.823 22.584 45.271 21.384C44.743 20.16 44.479 18.864 44.479 17.496ZM54.811 22.32C56.107 22.32 57.199 21.852 58.087 20.916C58.999 19.98 59.455 18.84 59.455 17.496C59.455 16.128 58.999 14.976 58.087 14.04C57.199 13.104 56.107 12.636 54.811 12.636C53.515 12.636 52.411 13.104 51.499 14.04C50.611 14.976 50.167 16.128 50.167 17.496C50.167 18.84 50.611 19.98 51.499 20.916C52.411 21.852 53.515 22.32 54.811 22.32Z" fill="#CA7868"/>
<path d="M67.0141 17.496C67.0141 16.128 67.2781 14.844 67.8061 13.644C68.3581 12.42 69.0901 11.364 70.0021 10.476C70.9381 9.588 72.0301 8.892 73.2781 8.388C74.5501 7.86 75.9061 7.596 77.3461 7.596C78.7861 7.596 80.1301 7.86 81.3781 8.388C82.6501 8.892 83.7421 9.588 84.6541 10.476C85.5901 11.364 86.3221 12.42 86.8501 13.644C87.4021 14.844 87.6781 16.128 87.6781 17.496C87.6781 18.864 87.4021 20.16 86.8501 21.384C86.3221 22.584 85.5901 23.628 84.6541 24.516C83.7421 25.404 82.6501 26.1 81.3781 26.604C80.1301 27.108 78.7861 27.36 77.3461 27.36C75.9061 27.36 74.5501 27.108 73.2781 26.604C72.0301 26.1 70.9381 25.404 70.0021 24.516C69.0901 23.628 68.3581 22.584 67.8061 21.384C67.2781 20.16 67.0141 18.864 67.0141 17.496ZM77.3461 22.32C78.6421 22.32 79.7341 21.852 80.6221 20.916C81.5341 19.98 81.9901 18.84 81.9901 17.496C81.9901 16.128 81.5341 14.976 80.6221 14.04C79.7341 13.104 78.6421 12.636 77.3461 12.636C76.0501 12.636 74.9461 13.104 74.0341 14.04C73.1461 14.976 72.7021 16.128 72.7021 17.496C72.7021 18.84 73.1461 19.98 74.0341 20.916C74.9461 21.852 76.0501 22.32 77.3461 22.32Z" fill="#D59386"/>
<path d="M129.608 27.072C128.264 27.072 126.992 26.82 125.792 26.316C124.616 25.812 123.596 25.128 122.732 24.264C121.868 23.376 121.184 22.344 120.68 21.168C120.176 19.968 119.924 18.696 119.924 17.352C119.924 16.008 120.176 14.748 120.68 13.572C121.208 12.396 121.916 11.376 122.804 10.512C123.692 9.648 124.736 8.964 125.936 8.46C127.16 7.956 128.456 7.704 129.824 7.704C130.688 7.704 131.528 7.812 132.344 8.028C133.16 8.244 133.916 8.556 134.612 8.964V7.956H140.372V26.82C140.372 29.388 139.52 31.356 137.816 32.724C136.112 34.116 133.676 34.812 130.508 34.812C128.996 34.812 127.544 34.668 126.152 34.38C124.76 34.092 123.5 33.684 122.372 33.156L124.316 28.62C125.348 29.1 126.368 29.46 127.376 29.7C128.384 29.94 129.392 30.06 130.4 30.06C131.768 30.06 132.8 29.784 133.496 29.232C134.192 28.68 134.54 27.852 134.54 26.748V25.56C133.82 26.04 133.04 26.412 132.2 26.676C131.36 26.94 130.496 27.072 129.608 27.072ZM125.648 17.352C125.648 18.72 126.128 19.872 127.088 20.808C128.048 21.72 129.224 22.176 130.616 22.176C131.408 22.176 132.128 22.056 132.776 21.816C133.448 21.576 134.036 21.228 134.54 20.772V14.04C134.036 13.608 133.448 13.272 132.776 13.032C132.104 12.768 131.396 12.636 130.652 12.636C129.26 12.636 128.072 13.092 127.088 14.004C126.128 14.916 125.648 16.032 125.648 17.352ZM150.04 27.324C148.024 27.324 146.368 26.772 145.072 25.668C143.776 24.564 143.128 23.148 143.128 21.42C143.128 19.62 143.812 18.216 145.18 17.208C146.572 16.2 148.504 15.696 150.976 15.696C151.72 15.696 152.452 15.744 153.172 15.84C153.892 15.936 154.6 16.068 155.296 16.236V15.3C155.296 14.34 154.984 13.632 154.36 13.176C153.76 12.696 152.86 12.456 151.66 12.456C150.916 12.456 150.076 12.576 149.14 12.816C148.204 13.056 147.124 13.44 145.9 13.968L143.812 9.684C145.348 8.988 146.848 8.472 148.312 8.136C149.8 7.776 151.264 7.596 152.704 7.596C155.344 7.596 157.396 8.232 158.86 9.504C160.324 10.752 161.056 12.516 161.056 14.796V27H155.296V25.848C154.528 26.376 153.712 26.76 152.848 27C152.008 27.216 151.072 27.324 150.04 27.324ZM148.672 21.312C148.672 21.912 148.936 22.38 149.464 22.716C149.992 23.052 150.724 23.22 151.66 23.22C152.356 23.22 153.004 23.148 153.604 23.004C154.228 22.86 154.792 22.632 155.296 22.32V19.872C154.744 19.728 154.18 19.62 153.604 19.548C153.028 19.476 152.44 19.44 151.84 19.44C150.832 19.44 150.052 19.608 149.5 19.944C148.948 20.256 148.672 20.712 148.672 21.312ZM170.355 0.539999V27H164.523V1.8L170.355 0.539999ZM179.777 0.539999V27H173.945V1.8L179.777 0.539999ZM200.826 24.48C199.626 25.488 198.39 26.22 197.118 26.676C195.87 27.132 194.454 27.36 192.87 27.36C191.43 27.36 190.074 27.108 188.802 26.604C187.53 26.1 186.426 25.404 185.49 24.516C184.578 23.628 183.846 22.584 183.294 21.384C182.766 20.16 182.502 18.864 182.502 17.496C182.502 16.128 182.754 14.844 183.258 13.644C183.786 12.42 184.494 11.364 185.382 10.476C186.27 9.588 187.314 8.892 188.514 8.388C189.738 7.884 191.046 7.632 192.438 7.632C193.83 7.632 195.114 7.896 196.29 8.424C197.466 8.952 198.474 9.672 199.314 10.584C200.178 11.496 200.85 12.6 201.33 13.896C201.81 15.168 202.05 16.548 202.05 18.036V19.476H188.478C188.862 20.364 189.462 21.096 190.278 21.672C191.094 22.224 192.054 22.5 193.158 22.5C193.95 22.5 194.67 22.38 195.318 22.14C195.966 21.876 196.518 21.516 196.974 21.06L200.826 24.48ZM192.33 12.384C191.37 12.384 190.542 12.648 189.846 13.176C189.15 13.704 188.658 14.448 188.37 15.408H196.326C196.014 14.496 195.498 13.764 194.778 13.212C194.082 12.66 193.266 12.384 192.33 12.384ZM204.777 27V7.956H210.609V9.864C211.233 9.12 211.965 8.544 212.805 8.136C213.645 7.728 214.581 7.524 215.613 7.524C216.165 7.548 216.609 7.596 216.945 7.668C217.281 7.716 217.569 7.824 217.809 7.992V13.068C217.425 12.9 216.993 12.768 216.513 12.672C216.033 12.552 215.541 12.492 215.037 12.492C214.125 12.492 213.273 12.708 212.481 13.14C211.713 13.572 211.089 14.16 210.609 14.904V27H204.777ZM226.103 27.288V27.252L218.795 7.956H225.239L229.451 19.944L234.347 7.956H240.647L232.115 27.972C231.059 30.444 229.835 32.196 228.443 33.228C227.051 34.26 225.215 34.776 222.935 34.776C222.479 34.776 222.035 34.752 221.603 34.704C221.171 34.68 220.811 34.632 220.523 34.56V29.592C220.787 29.64 221.051 29.676 221.315 29.7C221.603 29.724 221.939 29.736 222.323 29.736C223.235 29.736 224.015 29.532 224.663 29.124C225.311 28.716 225.791 28.104 226.103 27.288Z" fill="black"/>
</svg>
